<svg xmlns="http://www.w3.org/2000/svg" width="84.209" height="39.868" viewBox="0 0 84.209 39.868">
  <g id="Layer_2" data-name="Layer 2" transform="translate(159.378 -141.376)">
    <g id="Layer_1" data-name="Layer 1" transform="translate(-159.378 141.376)">
      <path id="Path_30535" data-name="Path 30535" d="M0,194.417H3.154V195.7a4.773,4.773,0,0,1,3.783-1.439,4.176,4.176,0,0,1,3.464,1.749,12.683,12.683,0,0,1,1.5-1.1,5.442,5.442,0,0,1,4.721-.268,3.991,3.991,0,0,1,2.468,3.343,8.528,8.528,0,0,1,.1,1.36q0,3.048,0,6.1v.331H15.861v-.31c0-1.927.019-3.856-.012-5.782a4.325,4.325,0,0,0-.271-1.4,1.686,1.686,0,0,0-1.549-1.12,2.4,2.4,0,0,0-2.773,2.608c-.037,1.882,0,3.767-.014,5.649v.359H7.931v-5.962a3.732,3.732,0,0,0-.313-1.633,1.733,1.733,0,0,0-1.4-1.01,2.359,2.359,0,0,0-2.836,2.214,8.59,8.59,0,0,0-.051.917q0,2.575,0,5.15v.3c-.035.023-.049.042-.063.042H0Z" transform="translate(37.175 -181.897)" fill="#fff"/>
      <path id="Path_30537" data-name="Path 30537" d="M100.825,205.817h-3.13V204.6a.972.972,0,0,0-.117.077,4.275,4.275,0,0,1-3,1.3,5.648,5.648,0,0,1-4.39-1.5,5.365,5.365,0,0,1-1.633-3.2,6.384,6.384,0,0,1,.739-4.364,5.254,5.254,0,0,1,4.059-2.58,5.033,5.033,0,0,1,3.091.466,11.692,11.692,0,0,1,1.078.73v-.891c0-.124.028-.2.173-.2h3.126ZM97.6,200.023a5.637,5.637,0,0,0-.082-.667,2.647,2.647,0,0,0-2.062-2.239,2.718,2.718,0,0,0-2.939.919,3.362,3.362,0,0,0-.6,2.913,2.857,2.857,0,0,0,4.523,1.773A3.157,3.157,0,0,0,97.6,200.023Z" transform="translate(-30.647 -181.935)" fill="#fff"/>
      <path id="Path_30539" data-name="Path 30539" d="M148.4,206.382l4.339-5.687-4.2-5.626c.121,0,.194-.023.268-.023h3.2a.422.422,0,0,1,.389.2c.735,1.024,1.479,2.041,2.239,3.088.058-.068.11-.121.154-.18.723-.968,1.446-1.934,2.165-2.906a.427.427,0,0,1,.39-.2h3.305l-4.22,5.554c1.455,1.922,2.9,3.839,4.383,5.8-.14,0-.233.014-.308.014h-3.2a.439.439,0,0,1-.408-.215c-.7-1.008-1.432-2.011-2.151-3.014-.049-.07-.1-.138-.173-.233-.467.63-.919,1.239-1.369,1.85-.355.478-.7.961-1.066,1.435a.429.429,0,0,1-.266.163H148.51A.412.412,0,0,1,148.4,206.382Z" transform="translate(-76.61 -182.527)" fill="#fff"/>
      <path id="Path_30541" data-name="Path 30541" d="M135.062,15.674A15.628,15.628,0,0,0,119.961.06h-.623A15.544,15.544,0,0,0,106,7.617a15.4,15.4,0,0,0-1.537,13.23,30.712,30.712,0,0,0,4.3,7.987,57.6,57.6,0,0,0,7.422,8.294c1.012.945,2.06,1.85,3.109,2.8.152-.114.245-.182.331-.254a62.392,62.392,0,0,0,9.836-10.24,31.659,31.659,0,0,0,4.586-8.143q.142-.4.266-.791a15.565,15.565,0,0,0,.751-4.826Z" transform="translate(-103.622 -0.06)" fill="#fddb00"/>
      <path id="Path_30542" data-name="Path 30542" d="M154.82,39.63a.677.677,0,0,1,.266.054.657.657,0,0,1,.215.149.7.7,0,0,1,.2.494V51.955a.432.432,0,0,1-.035.173.438.438,0,0,1-.091.14.4.4,0,0,1-.138.1.42.42,0,0,1-.17.035H153.2a.452.452,0,0,1-.17-.035.439.439,0,0,1-.264-.408V44.024a.153.153,0,0,0,0-.058.14.14,0,0,0-.033-.047.147.147,0,0,0-.047-.03.137.137,0,0,0-.054,0h-.051l-.026.014-.023.021-2.386,2.461a.872.872,0,0,0-.107.138.8.8,0,0,0-.079.154,1,1,0,0,0-.049.168.873.873,0,0,0-.016.175v4.929a.466.466,0,0,1-.035.173.434.434,0,0,1-.093.14.466.466,0,0,1-.138.1.441.441,0,0,1-.168.033H147.6a.408.408,0,0,1-.168-.035.422.422,0,0,1-.138-.093.467.467,0,0,1-.091-.142.415.415,0,0,1-.035-.173V47.017a.888.888,0,0,0-.016-.175,1.141,1.141,0,0,0-.049-.168.96.96,0,0,0-.079-.154.854.854,0,0,0-.107-.135l-2.368-2.47a.189.189,0,0,0-.023-.021h-.077a.149.149,0,0,0-.054.012.145.145,0,0,0-.044.028.131.131,0,0,0-.033.047.165.165,0,0,0-.012.061v7.9a.413.413,0,0,1-.035.17.45.45,0,0,1-.091.142.422.422,0,0,1-.138.093.4.4,0,0,1-.168.035h-1.852a.424.424,0,0,1-.3-.131.445.445,0,0,1-.093-.14.466.466,0,0,1-.033-.173v-11.6A.7.7,0,0,1,142,39.7a.665.665,0,0,1,.264-.054H144a.735.735,0,0,1,.142.014.7.7,0,0,1,.135.042.667.667,0,0,1,.126.07.829.829,0,0,1,.11.093l3.856,4,.035.03.044.019.042.014h.089l.044-.014.04-.021a.25.25,0,0,0,.037-.033l3.863-4.007a.7.7,0,0,1,.11-.093.668.668,0,0,1,.126-.07.7.7,0,0,1,.135-.042.611.611,0,0,1,.145-.016Z" transform="translate(-132.734 -30.4)"/>
    </g>
  </g>
</svg>
